<?xml version="1.0" standalone="no"?><!-- Generator: Gravit.io --><svg xmlns="http://www.w3.org/2000/svg" xmlns:xlink="http://www.w3.org/1999/xlink" style="isolation:isolate" viewBox="0 0 1398.425 602.992" width="1398.425" height="602.992"><defs><clipPath id="_clipPath_vwdw1xPH8PQMzqByuHFrpm0pvKvrHiOT"><rect width="1398.425" height="602.992"/></clipPath></defs><g clip-path="url(#_clipPath_vwdw1xPH8PQMzqByuHFrpm0pvKvrHiOT)"><clipPath id="_clipPath_fkbeHuB2KApCJlIzDI3JNeDv68jYnZMQ"><rect x="0" y="0" width="1398.425" height="602.992" transform="matrix(1,0,0,1,0,0)" fill="rgb(255,255,255)"/></clipPath><g clip-path="url(#_clipPath_fkbeHuB2KApCJlIzDI3JNeDv68jYnZMQ)"><g id="Group"><g id="Group"><path d=" M 1.937 299.409 C 1.937 267.339 27.973 241.303 60.043 241.303 C 92.113 241.303 118.149 267.339 118.149 299.409 C 118.149 331.479 92.113 357.516 60.043 357.516 C 27.973 357.516 1.937 331.479 1.937 299.409 Z " fill="rgb(255,255,255)"/><path d=" M 1.937 299.409 C 1.937 267.339 27.973 241.303 60.043 241.303 C 92.113 241.303 118.149 267.339 118.149 299.409 C 118.149 331.479 92.113 357.516 60.043 357.516 C 27.973 357.516 1.937 331.479 1.937 299.409 Z " fill="none" vector-effect="non-scaling-stroke" stroke-width="3.874" stroke="rgb(0,0,0)" stroke-opacity="100" stroke-linejoin="miter" stroke-linecap="butt" stroke-miterlimit="4"/></g><g id="Group"><path d=" M 428.05 66.984 C 428.05 34.914 454.086 8.878 486.156 8.878 C 518.226 8.878 544.262 34.914 544.262 66.984 C 544.262 99.054 518.226 125.09 486.156 125.09 C 454.086 125.09 428.05 99.054 428.05 66.984 Z " fill="rgb(255,255,255)"/><path d=" M 428.05 66.984 C 428.05 34.914 454.086 8.878 486.156 8.878 C 518.226 8.878 544.262 34.914 544.262 66.984 C 544.262 99.054 518.226 125.09 486.156 125.09 C 454.086 125.09 428.05 99.054 428.05 66.984 Z " fill="none" vector-effect="non-scaling-stroke" stroke-width="3.874" stroke="rgb(0,0,0)" stroke-opacity="100" stroke-linejoin="miter" stroke-linecap="butt" stroke-miterlimit="4"/></g><g id="Group"><path d=" M 854.163 66.984 C 854.163 34.914 880.199 8.878 912.269 8.878 C 944.339 8.878 970.375 34.914 970.375 66.984 C 970.375 99.054 944.339 125.09 912.269 125.09 C 880.199 125.09 854.163 99.054 854.163 66.984 Z " fill="rgb(255,255,255)"/><path d=" M 854.163 66.984 C 854.163 34.914 880.199 8.878 912.269 8.878 C 944.339 8.878 970.375 34.914 970.375 66.984 C 970.375 99.054 944.339 125.09 912.269 125.09 C 880.199 125.09 854.163 99.054 854.163 66.984 Z " fill="none" vector-effect="non-scaling-stroke" stroke-width="3.874" stroke="rgb(0,0,0)" stroke-opacity="100" stroke-linejoin="miter" stroke-linecap="butt" stroke-miterlimit="4"/></g><g id="Group"><path d=" M 428.05 531.834 C 428.05 499.765 454.086 473.728 486.156 473.728 C 518.226 473.728 544.262 499.765 544.262 531.834 C 544.262 563.904 518.226 589.941 486.156 589.941 C 454.086 589.941 428.05 563.904 428.05 531.834 Z " fill="rgb(255,255,255)"/><path d=" M 428.05 531.834 C 428.05 499.765 454.086 473.728 486.156 473.728 C 518.226 473.728 544.262 499.765 544.262 531.834 C 544.262 563.904 518.226 589.941 486.156 589.941 C 454.086 589.941 428.05 563.904 428.05 531.834 Z " fill="none" vector-effect="non-scaling-stroke" stroke-width="3.874" stroke="rgb(0,0,0)" stroke-opacity="100" stroke-linejoin="miter" stroke-linecap="butt" stroke-miterlimit="4"/></g><g id="Group"><path d=" M 854.163 531.834 C 854.163 499.765 880.199 473.728 912.269 473.728 C 944.339 473.728 970.375 499.765 970.375 531.834 C 970.375 563.904 944.339 589.941 912.269 589.941 C 880.199 589.941 854.163 563.904 854.163 531.834 Z " fill="rgb(255,255,255)"/><path d=" M 854.163 531.834 C 854.163 499.765 880.199 473.728 912.269 473.728 C 944.339 473.728 970.375 499.765 970.375 531.834 C 970.375 563.904 944.339 589.941 912.269 589.941 C 880.199 589.941 854.163 563.904 854.163 531.834 Z " fill="none" vector-effect="non-scaling-stroke" stroke-width="3.874" stroke="rgb(0,0,0)" stroke-opacity="100" stroke-linejoin="miter" stroke-linecap="butt" stroke-miterlimit="4"/></g><g id="Group"><path d=" M 1280.276 299.409 C 1280.276 267.339 1306.312 241.303 1338.382 241.303 C 1370.452 241.303 1396.488 267.339 1396.488 299.409 C 1396.488 331.479 1370.452 357.516 1338.382 357.516 C 1306.312 357.516 1280.276 331.479 1280.276 299.409 Z " fill="rgb(255,255,255)"/><path d=" M 1280.276 299.409 C 1280.276 267.339 1306.312 241.303 1338.382 241.303 C 1370.452 241.303 1396.488 267.339 1396.488 299.409 C 1396.488 331.479 1370.452 357.516 1338.382 357.516 C 1306.312 357.516 1280.276 331.479 1280.276 299.409 Z " fill="none" vector-effect="non-scaling-stroke" stroke-width="3.874" stroke="rgb(0,0,0)" stroke-opacity="100" stroke-linejoin="miter" stroke-linecap="butt" stroke-miterlimit="4"/></g><g id="Group"><line x1="112.736" y1="270.668" x2="414.761" y2="105.927" vector-effect="non-scaling-stroke" stroke-width="3.874" stroke="rgb(0,0,255)" stroke-linejoin="miter" stroke-linecap="butt" stroke-miterlimit="4"/><path d=" M 419.398 114.43 L 431.765 96.653 L 410.122 97.426 L 419.398 114.43 L 419.398 114.43 Z " fill="rgb(0,0,255)"/><path d=" M 419.398 114.43 L 431.765 96.653 L 410.122 97.426 L 419.398 114.43 L 419.398 114.43 Z " fill="rgb(0,0,255)" vector-effect="non-scaling-stroke" stroke-width="3.874" stroke="rgb(0,0,255)" stroke-linejoin="miter" stroke-linecap="butt" stroke-miterlimit="4"/></g><g id="Group"><line x1="112.736" y1="328.151" x2="414.761" y2="492.892" vector-effect="non-scaling-stroke" stroke-width="3.874" stroke="rgb(0,0,0)" stroke-linejoin="miter" stroke-linecap="butt" stroke-miterlimit="4"/><path d=" M 410.122 501.393 L 431.765 502.165 L 419.398 484.389 L 410.122 501.393 L 410.122 501.393 Z " fill="rgb(0,0,0)"/><path d=" M 410.122 501.393 L 431.765 502.165 L 419.398 484.389 L 410.122 501.393 L 410.122 501.393 Z " fill="none" vector-effect="non-scaling-stroke" stroke-width="3.874" stroke="rgb(0,0,0)" stroke-linejoin="miter" stroke-linecap="butt" stroke-miterlimit="4"/></g><g id="Group"><line x1="546.209" y1="531.834" x2="830.911" y2="531.834" vector-effect="non-scaling-stroke" stroke-width="3.874" stroke="rgb(0,0,0)" stroke-linejoin="miter" stroke-linecap="butt" stroke-miterlimit="4"/><path d=" M 830.911 541.519 L 850.279 531.834 L 830.911 522.15 L 830.911 541.519 L 830.911 541.519 Z " fill="rgb(0,0,0)"/><path d=" M 830.911 541.519 L 850.279 531.834 L 830.911 522.15 L 830.911 541.519 L 830.911 541.519 Z " fill="none" vector-effect="non-scaling-stroke" stroke-width="3.874" stroke="rgb(0,0,0)" stroke-linejoin="miter" stroke-linecap="butt" stroke-miterlimit="4"/></g><g id="Group"><line x1="964.962" y1="95.725" x2="1266.987" y2="260.466" vector-effect="non-scaling-stroke" stroke-width="3.874" stroke="rgb(0,0,255)" stroke-linejoin="miter" stroke-linecap="butt" stroke-miterlimit="4"/><path d=" M 1262.348 268.967 L 1283.991 269.74 L 1271.624 251.963 L 1262.348 268.967 L 1262.348 268.967 Z " fill="rgb(0,0,255)"/><path d=" M 1262.348 268.967 L 1283.991 269.74 L 1271.624 251.963 L 1262.348 268.967 L 1262.348 268.967 Z " fill="none" vector-effect="non-scaling-stroke" stroke-width="3.874" stroke="rgb(0,0,255)" stroke-linejoin="miter" stroke-linecap="butt" stroke-miterlimit="4"/></g><g id="Group"><line x1="546.209" y1="66.984" x2="830.911" y2="66.984" vector-effect="non-scaling-stroke" stroke-width="3.874" stroke="rgb(0,0,255)" stroke-linejoin="miter" stroke-linecap="butt" stroke-miterlimit="4"/><path d=" M 830.911 76.668 L 850.279 66.984 L 830.911 57.3 L 830.911 76.668 L 830.911 76.668 Z " fill="rgb(0,0,255)"/><path d=" M 830.911 76.668 L 850.279 66.984 L 830.911 57.3 L 830.911 76.668 L 830.911 76.668 Z " fill="none" vector-effect="non-scaling-stroke" stroke-width="3.874" stroke="rgb(0,0,255)" stroke-linejoin="miter" stroke-linecap="butt" stroke-miterlimit="4"/></g><g id="Group"><line x1="350.038" y1="39.871" x2="403.708" y2="41.034" vector-effect="non-scaling-stroke" stroke-width="3.434" stroke="rgb(255,0,0)" stroke-linejoin="miter" stroke-linecap="butt" stroke-miterlimit="4"/><path d=" M 403.511 32.412 L 420.823 41.899 L 403.906 49.655 L 403.511 32.412 Z " fill="rgb(255,0,0)"/><path d=" M 403.511 32.412 L 420.823 41.899 L 403.906 49.655 L 403.511 32.412 Z " fill="none" vector-effect="non-scaling-stroke" stroke-width="3.434" stroke="rgb(255,0,0)" stroke-linejoin="miter" stroke-linecap="butt" stroke-miterlimit="4"/></g><g id="Group"><line x1="526.741" y1="111.259" x2="857.287" y2="471.853" vector-effect="non-scaling-stroke" stroke-width="3.874" stroke="rgb(0,0,0)" stroke-linejoin="miter" stroke-linecap="butt" stroke-miterlimit="4"/><path d=" M 850.148 478.398 L 870.374 486.132 L 864.426 465.31 L 850.148 478.398 Z " fill="rgb(0,0,0)"/><path d=" M 850.148 478.398 L 870.374 486.132 L 864.426 465.31 L 850.148 478.398 Z " fill="none" vector-effect="non-scaling-stroke" stroke-width="3.874" stroke="rgb(0,0,0)" stroke-linejoin="miter" stroke-linecap="butt" stroke-miterlimit="4"/></g><g id="Group"><line x1="964.962" y1="503.093" x2="1266.987" y2="338.352" vector-effect="non-scaling-stroke" stroke-width="3.874" stroke="rgb(0,0,0)" stroke-linejoin="miter" stroke-linecap="butt" stroke-miterlimit="4"/><path d=" M 1271.624 346.855 L 1283.991 329.078 L 1262.348 329.851 L 1271.624 346.855 L 1271.624 346.855 Z " fill="rgb(0,0,0)"/><path d=" M 1271.624 346.855 L 1283.991 329.078 L 1262.348 329.851 L 1271.624 346.855 L 1271.624 346.855 Z " fill="none" vector-effect="non-scaling-stroke" stroke-width="3.874" stroke="rgb(0,0,0)" stroke-linejoin="miter" stroke-linecap="butt" stroke-miterlimit="4"/></g><g id="Group"><g transform="matrix(1.937,0,0,1.937,40.674,254.6)"><text transform="matrix(1,0,0,1,0,33.134)" style="font-family:&quot;Open Sans&quot;;font-weight:400;font-size:31px;font-style:normal;fill:#FF0000;stroke:none;">0</text></g></g><g id="Group"><g transform="matrix(1.937,0,0,1.937,1319.013,254.6)"><text transform="matrix(1,0,0,1,0,33.134)" style="font-family:&quot;Open Sans&quot;;font-weight:400;font-size:31px;font-style:normal;fill:#FF0000;stroke:none;">3</text></g></g><g id="Group"><g transform="matrix(1.937,0,0,1.937,234.362,116.212)"><text transform="matrix(1,0,0,1,0,24.583)" style="font-family:&quot;Open Sans&quot;;font-weight:400;font-size:23px;font-style:normal;fill:#000000;stroke:none;">0/10</text></g></g><g id="Group"><g transform="matrix(1.937,0,0,1.937,234.362,426.112)"><text transform="matrix(1,0,0,1,0,24.583)" style="font-family:&quot;Open Sans&quot;;font-weight:400;font-size:23px;font-style:normal;fill:#000000;stroke:none;">0/10</text></g></g><g id="Group"><g transform="matrix(1.937,0,0,1.937,699.213,232.424)"><text transform="matrix(1,0,0,1,0,24.583)" style="font-family:&quot;Open Sans&quot;;font-weight:400;font-size:23px;font-style:normal;fill:#000000;stroke:none;">0/8</text></g></g><g id="Group"><g transform="matrix(1.937,0,0,1.937,699.213,-0.001)"><text transform="matrix(1,0,0,1,0,24.583)" style="font-family:&quot;Open Sans&quot;;font-weight:400;font-size:23px;font-style:normal;fill:#000000;stroke:none;">4/4</text></g></g><g id="Group"><g transform="matrix(1.937,0,0,1.937,1125.326,116.212)"><text transform="matrix(1,0,0,1,0,24.583)" style="font-family:&quot;Open Sans&quot;;font-weight:400;font-size:23px;font-style:normal;fill:#000000;stroke:none;">4/10</text></g></g><g id="Group"><g transform="matrix(1.937,0,0,1.937,1125.326,426.112)"><text transform="matrix(1,0,0,1,0,24.583)" style="font-family:&quot;Open Sans&quot;;font-weight:400;font-size:23px;font-style:normal;fill:#000000;stroke:none;">0/10</text></g></g><g id="Group"><g transform="matrix(1.937,0,0,1.937,699.213,542.325)"><text transform="matrix(1,0,0,1,0,24.583)" style="font-family:&quot;Open Sans&quot;;font-weight:400;font-size:23px;font-style:normal;fill:#000000;stroke:none;">0/9</text></g></g><g id="Group"><g transform="matrix(1.937,0,0,1.937,466.787,22.175)"><text transform="matrix(1,0,0,1,0,33.134)" style="font-family:&quot;Open Sans&quot;;font-weight:400;font-size:31px;font-style:normal;fill:#FF0000;stroke:none;">1</text></g></g><g id="Group"><g transform="matrix(1.937,0,0,1.937,892.9,22.175)"><text transform="matrix(1,0,0,1,0,33.134)" style="font-family:&quot;Open Sans&quot;;font-weight:400;font-size:31px;font-style:normal;fill:#FF0000;stroke:none;">2</text></g></g><g id="Group"><g transform="matrix(1.937,0,0,1.937,466.787,487.025)"><text transform="matrix(1,0,0,1,0,33.134)" style="font-family:&quot;Open Sans&quot;;font-weight:400;font-size:31px;font-style:normal;fill:#FF0000;stroke:none;">1</text></g></g><g id="Group"><g transform="matrix(1.937,0,0,1.937,892.9,487.025)"><text transform="matrix(1,0,0,1,0,33.134)" style="font-family:&quot;Open Sans&quot;;font-weight:400;font-size:31px;font-style:normal;fill:#FF0000;stroke:none;">2</text></g></g></g></g></g></svg>